<?xml version="1.0" encoding="UTF-8"?>
<svg id="Layer_1" xmlns="http://www.w3.org/2000/svg" version="1.1" viewBox="0 0 170.19 245.22">
  <!-- Generator: Adobe Illustrator 29.3.0, SVG Export Plug-In . SVG Version: 2.1.0 Build 146)  -->
  <defs>
    <style>
      .st0 {
        fill: #fff;
      }
    </style>
  </defs>
  <path class="st0" d="M103.37,198.61c-5.14,4.11-10.9,7.24-17.17,9.21-5.72,1.79-10.97.73-15.34-3.63-4.18-4.18-8.42-8.32-12.53-12.58-2.63-2.72-4.2-5.88-4.53-9.84-.37-4.41.34-8.58,1.33-12.79,2.92-12.5,5.06-25.09,5.66-37.97.65-14.04,1.85-28.05,4.36-41.91,3.19-17.65,8.07-34.8,15.36-51.2,1.49-3.35,3.61-6.42,5.45-9.62.69-1.19,1.75-1.58,3.11-1.58,3.05,0,4.44.97,5.78,4.19,2.24,5.35,2.51,11.07,2.67,16.71.28,9.48.02,18.98.21,28.47.09,4.3.25,8.68,1.16,12.86,2.76,12.59,4.03,25.28,4.04,38.16.01,11.01,1.58,21.87,4.66,32.47,1.93,6.65,3.46,13.37,3.53,21.03.43,6.8-1.78,13.24-7.75,18.02h0Z"/>
  <path d="M103.37,198.61c-5.14,4.11-10.9,7.24-17.17,9.21-5.72,1.79-10.97.73-15.34-3.63-4.18-4.18-8.42-8.32-12.53-12.58-2.63-2.72-4.2-5.88-4.53-9.84-.37-4.41.34-8.58,1.33-12.79,2.92-12.5,5.06-25.09,5.66-37.97.65-14.04,1.85-28.05,4.36-41.91,3.19-17.65,8.07-34.8,15.36-51.2,1.49-3.35,3.61-6.42,5.45-9.62.69-1.19,1.75-1.58,3.11-1.58,3.05,0,4.44.97,5.78,4.19,2.24,5.35,2.51,11.07,2.67,16.71.28,9.48.02,18.98.21,28.47.09,4.3.25,8.68,1.16,12.86,2.76,12.59,4.03,25.28,4.04,38.16.01,11.01,1.58,21.87,4.66,32.47,1.93,6.65,3.46,13.37,3.53,21.03.43,6.8-1.78,13.24-7.75,18.02h0ZM71.65,142.32c-3.77,2.29-6.15,4.99-6.58,9.82-.57,6.34-2.21,12.59-3.37,18.89-.16.85-.19,1.72-.33,2.57-1.28,7.55.77,13.86,6.77,18.82,1.7,1.41,3.2,3.08,4.68,4.73,3.43,3.84,7.78,4.66,12.47,3.5,5.32-1.32,10.18-3.84,14.3-7.44,4.41-3.86,4.93-9.3,4.4-14.66-.54-5.5-1.62-10.96-2.74-16.39-1.04-5.06-2.34-10.07-3.78-15.03-.37-1.27-1.52-2.5-2.63-3.33-4.02-3.02-8.74-3.76-13.95-3.71-3.07-.12-6.25.41-9.24,2.23h0ZM96.23,137.64c0-2.84.09-5.27-.02-7.69-.44-9.86-.78-19.73-1.5-29.57-.39-5.27-1.86-10.47-2.16-15.75-.57-9.97-.63-19.97-.93-29.96-.15-4.81-.26-9.62-.61-14.42-.16-2.16-.84-4.27-1.29-6.41-.27-.03-.54-.07-.81-.1-1.08,2.04-2.24,4.03-3.22,6.12-6.57,14.05-10.68,28.9-13.82,44.02-3.5,16.84-5.24,33.89-5.01,51.11,0,1.06.1,2.12.18,3.68,9.65-6.19,19.22-6.58,29.19-1.03h0Z"/>
</svg>