<?xml version="1.0" encoding="UTF-8"?>
<svg id="Layer_1" xmlns="http://www.w3.org/2000/svg" version="1.1" viewBox="0 0 170.19 245.22">
  <!-- Generator: Adobe Illustrator 29.3.0, SVG Export Plug-In . SVG Version: 2.1.0 Build 146)  -->
  <defs>
    <style>
      .st0 {
        fill: #fff;
      }
    </style>
  </defs>
  <path class="st0" d="M84.17,132c-.43,2.1-.83,4.32-.72,6.45.3,6.27.62,12.57,1.43,18.78.49,3.74,1.57,7.51,3.01,11,2.68,6.48,5.87,12.76,8.76,19.15.86,1.9,1.74,3.86,2.09,5.89,1.03,6.03-1.5,8.44-7.46,7.1-5.75-1.3-10.93-3.87-15.16-8.03-7.21-7.1-12.65-15.47-16.37-24.85-5.26-13.26-7.88-27.18-9.65-41.29-1.56-12.39-4.39-24.46-8.6-36.25-3.46-9.69-5.45-19.76-4.74-30.12,1.09-16.05,15.13-26.06,27.76-23.52,2.41.49,4.87.92,7.14,1.81,6.8,2.66,13.45,2.59,20.1-.4,5.55-2.49,10.56-1.31,15.2,2.33,2.13,1.67,4.41,3.16,6.46,4.92,5.24,4.47,8.77,9.86,9.27,17.01.49,7.13-.48,13.99-2.66,20.76-3.52,10.93-4.12,21.95-.84,33.11,1.8,6.14,3.45,12.35,4.89,18.59,2.94,12.79,3.6,25.87,4.45,38.91.39,5.99-.82,11.8-2.29,17.53-.57,2.23-1.57,4.44-2.81,6.38-3.3,5.19-8.36,5.29-12.57.75-4.32-4.67-5.46-10.32-5.92-16.33-.29-3.81-.67-7.61-1.2-11.4-1.56-11.27-6.7-21.06-12.76-30.44-1.79-2.77-3.8-5.4-5.7-8.09-.22-.37-1.03-.55-1.11.25h0Z"/>
  <path d="M84.17,132c-.43,2.1-.83,4.32-.72,6.45.3,6.27.62,12.57,1.43,18.78.49,3.74,1.57,7.51,3.01,11,2.68,6.48,5.87,12.76,8.76,19.15.86,1.9,1.74,3.86,2.09,5.89,1.03,6.03-1.5,8.44-7.46,7.1-5.75-1.3-10.93-3.87-15.16-8.03-7.21-7.1-12.65-15.47-16.37-24.85-5.26-13.26-7.88-27.18-9.65-41.29-1.56-12.39-4.39-24.46-8.6-36.25-3.46-9.69-5.45-19.76-4.74-30.12,1.09-16.05,15.13-26.06,27.76-23.52,2.41.49,4.87.92,7.14,1.81,6.8,2.66,13.45,2.59,20.1-.4,5.55-2.49,10.56-1.31,15.2,2.33,2.13,1.67,4.41,3.16,6.46,4.92,5.24,4.47,8.77,9.86,9.27,17.01.49,7.13-.48,13.99-2.66,20.76-3.52,10.93-4.12,21.95-.84,33.11,1.8,6.14,3.45,12.35,4.89,18.59,2.94,12.79,3.6,25.87,4.45,38.91.39,5.99-.82,11.8-2.29,17.53-.57,2.23-1.57,4.44-2.81,6.38-3.3,5.19-8.36,5.29-12.57.75-4.32-4.67-5.46-10.32-5.92-16.33-.29-3.81-.67-7.61-1.2-11.4-1.56-11.27-6.7-21.06-12.76-30.44-1.79-2.77-3.8-5.4-5.7-8.09-.22-.37-1.03-.55-1.11.25h0ZM119.66,189.79c.9-4.71,1.96-9.45,2.14-14.22.62-16.42-1.58-32.47-7.12-48.01-1.32-3.71-2.48-7.49-3.47-11.3-1.16-4.45-1.44-9-.8-13.59.11-.82.12-1.65.2-2.8-1.62.3-2.92.49-4.2.78-6.56,1.5-12.98.44-19.38-1.05-1.56-.36-3.12-.71-4.68-1.08-6.08-1.45-12.15-1.57-18.32-.31-3.71.76-7.55.92-11.62,1.38.04.5.01,1.18.16,1.83,3.02,12.86,5.41,25.79,6.51,38.99.78,9.47,2.99,18.84,6.62,27.61,4.17,10.09,10.85,18.47,20.41,24.18,1.52.91,2.84,1.81,4.85,2.22.68,0,.7-.27.6-.62-.48-1.04-.92-2.1-1.45-3.12-4.26-8.08-8.15-16.3-10.65-25.15-3.14-11.11-2.96-22.45-2.59-33.8.06-2.02.8-4.15,1.73-5.98,2.21-4.38,5.84-4.88,9.13-1.24,4.9,5.42,8.87,11.49,12.18,18.03,6.16,12.18,8.89,25.28,10.88,38.63.38,2.55.92,5.11,1.69,7.57.74,2.35,1.97,4.51,5.07,5.58,1.7-.49,1.81-2.95,2.11-4.53h0ZM109.49,50.49c-3.78-3.74-5.15-3.99-10.17-1.99-4.68,1.86-9.28,3.89-14.48,4.04-4.91.14-9.52-1-14.05-2.65-4.28-1.56-8.5-3.27-12.82-4.69-5.12-1.68-7.72-.69-10.58,3.92-4.67,7.52-5.37,15.72-3.89,24.24.59,3.4,1.13,6.83,2.14,10.11.93,3.03,2.35,5.93,3.78,8.77.34.68,1.56,1.26,2.39,1.28,3.06.07,6.18.22,9.19-.25,8.83-1.38,17.43-.21,25.97,1.89,7.35,1.81,14.63,1.45,21.91-.38,1.94-.49,3.11-1.34,3.5-3.59,1.08-6.17,2.5-12.29,3.75-18.44.19-.96.16-1.96.21-2.74-.17-7.4-1.46-14.18-6.85-19.52h0ZM92.65,42.56c-5.32,3.15-10.71,3.65-16.57,1.42-3.96-1.51-8.19-2.31-12.29-3.43-.08.28-.16.55-.25.83,5.64,1.93,11.23,3.98,16.92,5.73,3.04.93,6.1.05,9-1.06,3.42-1.3,6.79-2.72,10.86-4.37-3.14-.94-5.51-.4-7.67.88h0Z"/>
</svg>