<?xml version="1.0" encoding="UTF-8"?>
<svg id="Layer_1" xmlns="http://www.w3.org/2000/svg" version="1.1" viewBox="0 0 170.19 245.22">
  <!-- Generator: Adobe Illustrator 29.3.0, SVG Export Plug-In . SVG Version: 2.1.0 Build 146)  -->
  <defs>
    <style>
      .st0 {
        fill: #fff;
      }
    </style>
  </defs>
  <path class="st0" d="M105.32,113.37c0,7.65.06,15.31-.03,22.96-.04,3.45-.52,6.89-.49,10.34.02,2.55.09,5.26.91,7.62,4.33,12.43,6.68,25.29,8.08,38.29,1.04,9.68-2.57,17.98-9.91,24.37-3.33,2.9-7.08,5.34-10.82,7.72-4.44,2.82-9.32,3.26-14.18,1.24-3.97-1.65-8.08-3.28-11.6-5.68-9.02-6.16-14.91-14.28-16.04-25.71-1.1-11.06.6-21.63,3.48-32.15.26-.95.68-1.88,1.03-2.76,1.71-4.33,1.84-7.45,1.45-11.35-.72-7.24-1.32-14.5-2.06-21.73-.85-8.3-.51-16.48.59-24.66,1.78-13.2,4.55-26.4,6.2-39.61.65-5.23.37-10.58.44-15.88.06-5.17-.02-10.34.05-15.51.05-3.95.26-7.89.35-11.84.08-3.55,1.3-6.49,4.32-8.55,3.07-2.1,6.05-2.07,8.77.45,1.61,1.49,3.04,3.25,4.3,5.07,7.17,10.37,13.57,21.17,18.16,32.98,2.44,6.26,4.24,12.65,4.69,19.34,1,15.01,1.31,27.14,2.22,42.16.02,1.54.02,1.15.09,2.89Z"/>
  <path d="M105.32,113.37c0,7.65.06,15.31-.03,22.96-.04,3.45-.52,6.89-.49,10.34.02,2.55.09,5.26.91,7.62,4.33,12.43,6.68,25.29,8.08,38.29,1.04,9.68-2.57,17.98-9.91,24.37-3.33,2.9-7.08,5.34-10.82,7.72-4.44,2.82-9.32,3.26-14.18,1.24-3.97-1.65-8.08-3.28-11.6-5.68-9.02-6.16-14.91-14.28-16.04-25.71-1.1-11.06.6-21.63,3.48-32.15.26-.95.68-1.88,1.03-2.76,1.71-4.33,1.84-7.45,1.45-11.35-.72-7.24-1.32-14.5-2.06-21.73-.85-8.3-.51-16.48.59-24.66,1.78-13.2,4.55-26.4,6.2-39.61.65-5.23.37-10.58.44-15.88.06-5.17-.02-10.34.05-15.51.05-3.95.26-7.89.35-11.84.08-3.55,1.3-6.49,4.32-8.55,3.07-2.1,6.05-2.07,8.77.45,1.61,1.49,3.04,3.25,4.3,5.07,7.17,10.37,13.57,21.17,18.16,32.98,2.44,6.26,4.24,12.65,4.69,19.34,1,15.01,1.31,27.14,2.22,42.16.02,1.54.02,1.15.09,2.89ZM72.52,16.4c-.49-.17-.78-.03-.98.11-.49,1.48-1.23,2.92-1.41,4.44-.38,3.17-.6,6.38-.66,9.58-.17,9,.15,18.02-.42,27-1.37,12.47-3.7,24.85-5.41,37.66-2.62,13.14-3.82,26.35-1.8,39.69.63,4.17,1.47,8.31,2.18,12.33,4.14-1.6,7.7-3.51,11.5-4.28,3.67-.75,7.65-.79,11.37-.28,3.76.52,7.38,2.09,11.35,3.29,0-1.61.02-2.96,0-4.31-.36-21.45-.07-42.93-2.48-64.29-.75-6.6-1.24-13.35-3.07-19.68-3.88-13.44-10.35-25.82-17.58-37.77-.75-1.24-2.11-3.24-2.59-3.49h0ZM58.45,184.28c.13,2.83.14,5.68.43,8.5.51,4.97,1.78,9.72,5,13.7,4.65,5.75,10.6,9.94,16.93,13.55,3.86,2.2,7.87,1.68,11.47-.99,2.57-1.91,5.06-3.94,7.59-5.91,2.81-2.19,4.62-5.05,5.76-8.41,1.41-4.15,2.07-8.38,1.59-12.74-1.05-9.58-3.07-18.97-5.96-28.16-.62-1.98-1.6-3.88-2.63-5.69-3.99-7.03-10.11-10.13-18.13-9.72-9.93.51-15.75,4.95-18.64,14.4-2.13,6.98-3.5,14.1-3.41,21.47h0Z"/>
</svg>